<svg xmlns="http://www.w3.org/2000/svg" xmlns:xlink="http://www.w3.org/1999/xlink" version="1.1" id="Layer_1"  fill="none" width="100px" height="100px" viewBox="0 0 15 15" enable-background="new 0 0 100 100" xml:space="preserve" fill="none">
    <path d="M10.588 8.594 8.244 6.25l2.344 -2.344a0.249 0.249 0 0 0 0 -0.352L8.946 1.912a0.249 0.249 0 0 0 -0.352 0L6.25 4.256l-2.344 -2.344c-0.093 -0.093 -0.258 -0.093 -0.352 0L1.912 3.554a0.249 0.249 0 0 0 0 0.352L4.256 6.25 1.912 8.594a0.249 0.249 0 0 0 0 0.352L3.554 10.588a0.248 0.248 0 0 0 0.352 0l2.344 -2.344 2.345 2.344c0.049 0.049 0.112 0.073 0.176 0.073s0.127 -0.024 0.176 -0.073l1.642 -1.642a0.249 0.249 0 0 0 0 -0.352" fill="none"/>
</svg>